<svg version="1" xmlns="http://www.w3.org/2000/svg" width="1733.333" height="1733.333" viewBox="0 0 1300.000000 1300.000000"><path d="M631.5 1.1c-22.8 3.8-34.6 8.1-58.9 21.9-3.7 2-29.1 16.5-83.6 47.5-18.9 10.8-61.1 34.7-69.5 39.5-3.7 2.1-31.4 17.9-37 21-2.2 1.3-9.2 5.2-15.5 8.8-6.3 3.6-12.8 7.3-14.5 8.3-1.6 1-4.6 2.7-6.5 3.7-1.9 1-8.4 4.7-14.5 8.2-22.5 12.9-45.2 25.8-50 28.5-5.7 3.1-16.2 9.1-18.5 10.5-3.5 2.1-13.8 7.9-18 10.2-2.5 1.4-8.5 4.8-13.4 7.7-4.9 2.8-9.1 5.1-9.3 5.1-.2 0-2 1-4.1 2.3-2 1.3-6.2 3.7-9.2 5.4-3 1.7-9.5 5.3-14.4 8.2-4.9 2.8-9 5.1-9.2 5.1-.1 0-3.7 2-7.8 4.5-4.2 2.5-7.9 4.5-8.2 4.5-.3 0-1.8.8-3.2 1.9-1.5 1-5.4 3.3-8.7 5.1-14 7.8-24.2 13.5-26.5 15-.8.6-2.2 1.3-3 1.7-3 1.3-16.6 10.8-20.5 14.2-26 23-41.6 51.3-46.4 84.2-.6 3.9-.9 113.6-.8 279.4.2 258.7.3 273.4 2 280.5 3.6 15 9.1 29.3 15.7 40.8 10.9 19.1 31.5 39.6 49.8 49.5 1.9 1 16.5 9.3 32.5 18.4 16.1 9.1 37.3 21.2 47.2 26.8 9.9 5.6 29.7 16.9 44 25 14.3 8.2 27.4 15.6 29 16.5 1.7.9 9.5 5.4 17.5 10 8 4.5 17 9.6 20 11.3 3 1.6 6.7 3.8 8.2 4.9 1.4 1 2.9 1.8 3.2 1.8.3 0 6.5 3.4 13.8 7.6 7.3 4.2 16.7 9.6 20.8 11.9 4.1 2.3 19 10.7 33 18.7s27.5 15.6 30 17c5.4 3 8.7 4.9 20.3 11.7 4.9 2.8 9 5.1 9.2 5.1.2 0 3.6 1.9 7.7 4.3 4 2.4 9.8 5.7 12.8 7.4 3 1.7 16.5 9.3 30 17 13.5 7.7 33.1 18.8 43.5 24.7 10.5 6 21.5 12.3 24.5 14 17.2 10 35.3 16.9 51 19.6 15.4 2.7 36.6 2.1 55.5-1.5 10.6-2.1 27.2-8.9 43-17.8 3.3-1.9 8.3-4.7 11-6.2 2.8-1.5 10.7-6.1 17.7-10.2 7-4 13-7.3 13.4-7.3.3 0 2.6-1.4 5.1-3 2.4-1.7 4.5-3 4.7-3 .2 0 6.4-3.4 13.7-7.6 7.4-4.2 15.4-8.8 17.9-10.2 2.5-1.4 15.8-8.9 29.5-16.7 13.8-7.9 26.8-15.3 29-16.5 2.2-1.2 11.7-6.6 21-12 9.4-5.3 19-10.8 21.5-12.2 6.3-3.5 8.7-4.9 37.7-21.4 71.5-40.8 91.3-52 96.3-54.7 3-1.6 6.2-3.6 7.1-4.3.8-.8 1.8-1.4 2.2-1.4.5 0 46.3-25.6 51.7-29 2-1.2 13.2-7.6 20-11.3 3-1.7 10.2-5.8 16-9.2 5.8-3.4 11.2-6.4 12-6.8.8-.4 2.4-1.3 3.5-2s5.6-3.2 10-5.6c18.2-10 33.9-22.8 45.2-36.6 14-17.2 24.8-42.6 28.2-66.6 1.2-8.6 1.1-548.8-.2-552.9-.7-2.4-1-3.7-2.3-10.5-1-5.4-5.5-17.8-9.5-26.4-9-19.3-23.8-37.2-41.9-50.6-6.7-4.9-54.5-32.8-99.5-58-8.2-4.6-16.9-9.5-18.5-10.5-2.6-1.6-28.2-16.2-34-19.3-3-1.7-6.7-3.8-8.2-4.9-1.4-1-2.9-1.8-3.3-1.8-.4 0-3.4-1.6-6.8-3.6-6.5-3.9-8.3-4.9-21.2-12.2-4.4-2.4-17.2-9.7-28.5-16.2-11.3-6.4-22.5-12.8-25-14.2-2.5-1.4-15.7-8.9-29.5-16.8-13.7-7.8-26.6-15.1-28.5-16.2-1.9-1.1-13.4-7.6-25.5-14.5-12.1-6.8-22.7-12.9-23.5-13.4-1.6-.9-32.2-18.3-40-22.6-2.5-1.4-5.8-3.3-7.5-4.3-1.6-1-5-2.9-7.5-4.3-2.5-1.3-18.9-10.6-36.5-20.6C704.3 10 693.5 5.4 673 1.8c-8-1.3-34.7-1.8-41.5-.7zm79 194.4c7.2.3 14.4.8 16 1 1.7.2 5.7.6 9 1 3.3.3 6.9.8 8 1 1.1.2 3.6.7 5.5.9 1.9.3 6 1 9 1.6 3 .6 6.9 1.3 8.5 1.6 5.6.9 29.3 7.3 38.7 10.5 27 8.9 58 24.3 80.3 39.7 7.2 5 19.2 13.9 20.5 15.2.3.3 3.4 2.9 7 5.9 10.8 9 30.6 29.3 38.5 39.5 1.7 2.1 3.5 4.4 4 5 1.1 1.2 6.3 8.3 11.7 16.1 6.1 8.8 15.3 24.7 21.1 36.5 15 30.8 24.2 61.7 29.2 99.2.6 4.4 1.8 25.2 1.9 32.5.1 2.9.4 5.3.7 5.3.7 0 .4 13.8-.5 27-1.4 18.5-8.7 54.1-14.1 69.2-.9 2.4-1.7 4.7-1.9 5.3-1.9 6.4-9.3 23.9-14.8 35-23.1 46.4-57.5 86.3-100.1 115.7-6.2 4.3-11.7 8.2-12.4 8.8-.7.5-1.5 1-1.8 1-.3 0-2.2 1.1-4.3 2.3-10.7 6.8-27.4 15.2-43.2 22-9.4 4-33.5 12.3-41.5 14.3-1.6.4-3.4.9-4 1-1.5.5-22.6 5.2-26 5.8-9.6 1.8-30 4.4-40 5.1-6.2.5-45.7.6-50.5.1-1.9-.2-7.1-.6-11.5-1S643 818.5 640 818s-7.5-1.2-10-1.5c-24.1-3.3-64.8-15.7-87-26.4l-7.5-3.6V664.3c0-67.3.2-122.3.5-122.3s1.4 3.3 2.4 7.2c8.1 32 27.8 64 52.2 84.9 15.8 13.5 41.6 26.6 61.9 31.4 7.3 1.7 8.6 2 19.5 3.4 6.3.9 36.5.7 40.5-.2 1.1-.3 4-.8 6.5-1.2 20.1-3.1 43.3-12.8 60.7-25.2 9.1-6.4 22.6-18.9 29.1-26.8 17.5-21.4 30.6-51.6 34.8-80 3.3-22.9 1.7-56-3.6-74-4.6-15.5-10.1-28.9-16.9-40.9-2.4-4.2-10.1-15.8-11-16.6-.3-.3-2.8-3.1-5.4-6.3-23.5-27.9-54.1-44.5-94.7-51.3-9.3-1.6-43.9-.9-52.5 1-15.7 3.5-20.8 5-32.5 9.9-22.7 9.4-44.9 26.5-59.7 45.7-12.8 16.6-25.8 43.6-28.7 59.4-.2 1.1-.9 3.9-1.4 6.1-2.7 10.3-3.7 21.8-3.6 41.1l.1 17.2h-85.2l-85.3-.1 1.9-3.1c1.1-1.7 5.6-8.3 10-14.6 4.5-6.3 8.9-12.7 9.8-14.2.9-1.6 1.9-2.8 2.4-2.8.4 0 .7-.5.7-1 0-.6.5-1.6 1-2.3 1.1-1.2 4.7-6.3 24-34.2 20.4-29.4 22.9-33 23.7-34 .5-.6 2.2-3 3.8-5.5 3.9-5.8 15.3-22.2 16.3-23.5.4-.6 5-7.2 10.2-14.8 5.2-7.6 11.5-16.6 14-20.1s5.2-7.4 6-8.6c.8-1.2 2.2-3.2 3.1-4.4.9-1.1 4.5-6.4 8-11.6 3.5-5.2 6.8-9.9 7.2-10.5.5-.5 7.6-10.7 15.8-22.5 8.2-11.8 15.3-22.2 15.9-23 .6-.8 4.6-6.7 9-13 4.3-6.3 8.3-12 8.7-12.5.5-.6 2.2-3 3.9-5.5 1.7-2.5 4.6-6.8 6.5-9.5 1.9-2.8 5.5-7.9 7.9-11.5 2.5-3.6 5.1-7.1 5.8-7.8.6-.8 1.7-2.2 2.2-3.2.8-1.6 6.4-3.7 17.5-6.6 1.7-.4 3.2-.8 3.5-.9.5-.1 11.2-2.6 13.5-3.1.6-.1 3.7-.7 7-1.3 3.3-.6 7.1-1.3 8.4-1.6 1.2-.2 4.2-.6 6.5-.9 2.2-.3 6.4-.8 9.1-1.1 14.2-1.7 21.2-2.2 34-2.4 7.7-.1 14.1-.4 14.3-.6.2-.2.9-.2 1.5 0 .7.2 7.1.7 14.2 1zM364.1 542.2c0 1.8.3 4.6.5 6.3 1.2 8.2 2.4 16.2 2.8 18.1.2 1.2.7 3.9 1 6 1.9 11.7 9.8 38 16.6 54.9 7.9 19.9 25.6 51.2 36.7 65 .4.6 4.4 5.5 8.8 11 13.2 16.6 42.2 44 56.5 53.5 1.2.8 3.4 2.4 4.8 3.5 5.1 4 24.4 15.6 35.2 21.3 3.6 1.9 6.7 3.7 7 4.2.3.4.5 24.9.4 54.3v53.6l-9 13.1c-4.9 7.3-9.3 13.7-9.9 14.4-.5.6-2.8 3.8-5 7.1s-8.4 12.3-13.7 20c-5.4 7.7-10.2 14.7-10.8 15.5-5.5 8-19.2 27.8-20 29-2.5 3.7-27.1 39.3-32.3 46.7-3.1 4.6-8.1 11.8-11.1 16.1-2.9 4.2-8.8 12.6-13 18.7-4.2 6-9.6 13.9-12 17.5-2.4 3.6-8.8 12.8-14.1 20.5-5.4 7.7-11.8 17.2-14.4 21.2-2.5 3.9-5 7.4-5.6 7.6-.7.3-1-100.4-1-300.9 0-165.8.3-301.4.8-301.4.4 0 .7 1.5.8 3.2z"/></svg>